PathFileType	4	(X/Y/Z)	D:\TRACE\v60_Jaco2_6-2-23\JustBodyDRS_Motion3_3-v60.trc
DataRate	CameraRate	NumFrames	NumMarkers	Units	OrigDataRate	OrigDataStartFrame	OrigNumFrames
100.00	100.00	      41	9	mm	100.00	2626	      7000
Frame#	Time	front left toe			Front right toe			aft left toe			aft right toe			Arm			FL body			FR body			AL Body			AR Body			
		X1	Y1	Z1	X2	Y2	Z2	X3	Y3	Z3	X4	Y4	Z4	X5	Y5	Z5	X6	Y6	Z6	X7	Y7	Z7	X8	Y8	Z8	X9	Y9	Z9	

2626	26.250	-98.49454	61.52389	-96.49186	221.65118	27.48664	-111.47052	-160.34198	-17.79843	509.19278	247.93210	20.41267	526.05139	36.08199	1211.74756	-81.98354	-40.11275	588.76270	-240.84990	118.69372	589.77515	-239.08675	-43.19180	512.40594	700.71698	113.72140	503.18515	700.36920	
2627	26.260	-102.50671	75.01665	-99.37864	221.66786	27.49549	-111.31361	-159.80074	-19.09458	509.47299	246.35448	31.78374	524.31683	35.26556	1212.61060	-80.04513	-40.51139	589.30859	-241.35287	117.89177	590.46619	-239.10956	-44.08421	511.26236	700.37152	112.50968	502.39981	700.04993	
2628	26.270	-106.82070	87.91748	-101.94195	221.62794	27.42746	-111.33432	-160.10387	-19.49318	509.48965	244.69484	44.87248	521.94080	34.27405	1213.06458	-78.83619	-40.51811	589.48822	-241.44934	117.70776	590.81458	-238.97607	-45.98230	510.15042	699.88306	110.66198	501.26196	699.79407	
2629	26.280	-110.82239	100.88099	-104.12585	221.59781	27.54489	-111.14156	-160.80109	-19.48739	509.58701	243.67870	56.98911	520.37830	34.94220	1213.00122	-77.90984	-40.62618	589.98346	-241.72646	117.62957	591.33740	-239.01138	-46.97666	508.77347	699.61395	109.12952	500.13483	699.80463	
2630	26.290	-114.24561	113.73373	-106.17551	221.54309	27.58000	-110.93021	-161.02577	-19.81540	509.55823	241.60201	68.60706	519.35596	34.67959	1212.89331	-77.38283	-40.91460	590.67816	-241.73203	117.70071	592.18872	-239.21031	-48.48842	507.64310	699.43597	107.74586	499.10638	699.58740	
2631	26.300	-116.90118	125.59850	-107.52831	221.44724	27.58605	-110.79530	-161.39056	-20.18890	509.39890	238.00623	79.28204	518.47351	33.90683	1212.82886	-76.98098	-41.25847	591.11212	-241.86160	117.21456	592.51892	-238.82631	-49.50457	506.93182	699.18604	106.48462	498.38644	699.71484	
2632	26.310	-119.89194	136.42238	-108.81947	221.36255	27.59687	-110.72066	-161.56516	-20.52944	509.41467	234.05579	89.04011	517.67548	33.54714	1213.08850	-76.51815	-41.30132	591.13257	-241.85406	117.05209	592.46692	-238.76761	-51.08772	506.24921	698.64240	105.25189	497.69431	699.56195	
2633	26.320	-122.95327	145.56229	-109.63848	221.22307	27.62808	-110.69970	-161.41292	-21.21928	509.32614	230.06563	97.38733	517.20642	33.26777	1213.09180	-75.95279	-41.45020	590.93579	-241.85442	116.93938	592.27356	-238.57249	-51.88362	506.00928	698.99994	104.50748	497.32901	699.66919	
2634	26.330	-126.43619	151.32341	-109.84151	221.11012	27.73558	-110.52494	-162.05197	-21.41265	509.50537	226.87701	103.06850	517.19659	33.05685	1212.77380	-75.41711	-41.57740	590.56970	-241.83630	116.90782	592.15509	-238.59076	-53.48736	505.54602	698.76978	103.11368	496.91284	699.68427	
2635	26.340	-130.04140	154.73888	-109.79720	221.05577	27.84088	-110.39123	-161.98151	-21.96257	509.49741	224.23912	106.18432	517.62872	32.48465	1212.43555	-75.34411	-41.61691	590.53943	-241.76482	116.81776	591.89087	-238.29556	-53.97704	505.51154	699.00513	102.05987	496.55969	699.96222	
2636	26.350	-133.55217	155.43245	-109.49864	220.90598	27.84479	-110.22916	-162.06340	-22.31326	509.59103	222.15092	106.38831	518.40784	32.33697	1212.19983	-75.43679	-41.60508	590.47449	-241.68069	116.71832	591.79034	-238.06288	-55.79267	505.21399	699.08136	100.91433	496.28326	700.31982	
2637	26.360	-136.81552	153.63678	-108.85311	220.67807	27.95509	-109.96911	-162.61934	-22.30813	509.62396	219.74408	103.62255	519.26233	32.40979	1212.19324	-75.39130	-41.70235	590.48218	-241.79964	116.38993	591.72302	-237.63371	-56.62703	505.22284	699.58411	99.79847	495.90372	700.58496	
2638	26.370	-139.13408	149.35135	-108.56920	220.45454	27.91659	-109.78213	-162.94644	-22.91165	509.49069	217.06830	99.15787	520.28174	32.49475	1212.13892	-75.17030	-41.68933	590.36298	-241.56114	116.33054	591.67493	-237.26756	-58.04864	504.79697	699.13922	98.24407	495.87521	700.96710	
2639	26.380	-141.62416	143.54825	-107.96989	220.26028	27.93898	-109.47457	-163.14505	-23.46935	509.55847	214.08519	93.54286	521.05817	32.54644	1212.13196	-74.49845	-41.84679	590.31824	-241.27655	116.61115	591.70587	-237.05780	-59.06804	504.50836	699.37897	97.37913	495.65302	701.26459	
2640	26.390	-143.44128	137.03323	-107.96347	220.09393	28.00609	-109.16586	-162.85437	-24.19362	509.53867	210.99620	87.02823	521.54144	32.26822	1212.04675	-73.88677	-41.85705	590.34503	-241.02782	116.46630	591.71472	-236.62694	-60.37064	504.34909	699.56104	95.88264	495.44263	701.51605	
2641	26.400	-145.34621	129.31644	-107.97411	220.10710	28.09065	-109.02856	-162.96964	-24.38004	509.53217	208.20987	79.30799	522.02252	31.76186	1212.09766	-73.21103	-41.99416	590.53302	-240.80731	116.48941	591.95795	-236.23579	-61.19398	503.78851	699.82526	94.96440	495.16681	701.88275	
2642	26.410	-147.94402	120.83050	-108.67094	219.99298	28.23606	-108.98003	-163.11491	-24.64887	509.53339	205.76659	70.54422	522.11017	31.15453	1212.34741	-72.40414	-41.93944	590.96118	-240.52737	116.57803	592.33850	-235.99249	-62.39267	503.38922	699.92432	93.89336	494.68674	702.12903	
2643	26.420	-150.31197	111.34866	-109.37100	219.89545	28.32966	-108.85474	-163.91010	-24.76383	509.58978	203.63113	60.90292	522.15515	30.52271	1212.56287	-71.57722	-41.92142	591.12799	-240.33701	116.65284	592.50897	-235.59007	-63.28464	502.93488	699.60303	92.88280	494.12704	702.40314	
2644	26.430	-152.73213	101.60370	-110.09607	219.79842	28.59565	-108.74892	-164.05103	-25.29098	509.63754	200.71935	49.98021	522.17236	29.89118	1212.55249	-70.82023	-41.92679	591.23865	-240.20744	116.49466	592.58862	-235.01291	-64.05157	502.37808	700.01306	91.76207	493.85172	702.77234	
2645	26.440	-155.00873	91.45973	-110.25607	219.67476	28.74849	-108.73408	-164.23143	-25.73742	509.65356	198.16504	38.81498	522.32007	29.53465	1212.54272	-70.13539	-42.03512	591.40289	-239.88901	116.46382	592.61584	-234.34570	-65.37539	501.81076	699.99768	90.44810	493.22546	703.13855	
2646	26.450	-156.77867	81.34740	-110.48298	219.63786	28.76826	-108.73318	-164.41330	-26.18078	509.51324	195.22324	28.80013	522.04810	29.29646	1212.61841	-69.31618	-42.25978	591.77234	-239.69814	116.52535	592.88336	-234.19847	-65.92041	501.14981	700.56000	90.28051	492.75323	703.35773	
2647	26.460	-158.40538	71.30609	-110.07716	219.48845	28.81035	-108.77619	-164.18248	-26.92672	509.72263	192.69893	18.60997	521.96301	29.40224	1212.81531	-68.31306	-42.33343	592.03357	-239.45886	116.04343	593.15002	-233.87415	-66.58149	500.65469	700.60114	89.37753	492.08942	703.76031	
2648	26.470	-159.73695	61.57323	-109.70574	219.24490	28.98869	-108.42132	-164.48714	-27.30105	509.90457	191.58662	8.95974	521.62799	29.35552	1212.87830	-67.63578	-42.42002	592.14935	-239.25641	115.52022	593.43402	-233.49657	-67.64682	500.22467	700.53131	88.23843	491.41760	704.10242	
2649	26.480	-161.02898	52.60872	-109.43843	219.01372	29.19703	-107.94863	-164.76927	-27.53791	509.99326	190.70210	0.56139	521.28113	29.38841	1212.78284	-66.77367	-42.47123	592.36487	-238.94508	115.45657	593.70886	-233.13802	-68.44357	499.39932	700.95496	87.51424	490.69785	704.24231	
2650	26.490	-161.90147	44.53323	-109.20058	218.73441	29.28329	-107.79974	-165.41426	-27.36756	509.75815	190.00531	-7.75079	521.01019	29.53714	1212.87122	-65.75191	-42.65625	592.64374	-238.62898	115.51344	593.90790	-232.62219	-69.11311	498.68622	700.88074	86.49702	489.96542	704.42987	
2651	26.500	-162.23122	36.98577	-108.91138	218.54169	29.38482	-107.69546	-165.87241	-27.94246	509.76257	190.11185	-14.73315	520.70105	29.52168	1212.86292	-64.74567	-42.60318	592.88562	-238.19572	115.49599	594.19202	-232.16527	-70.36100	497.89502	701.21118	85.43627	489.06229	704.75867	
2652	26.510	-162.57454	31.40280	-109.22765	218.23807	29.49992	-107.62065	-165.99602	-28.70931	510.11194	189.33220	-21.43088	520.12518	29.47245	1213.04041	-63.63197	-42.76052	593.29553	-238.01508	115.49557	594.46503	-231.76056	-70.63506	497.15280	701.06641	84.89323	488.32135	704.88391	
2653	26.520	-163.66795	32.17257	-111.22892	218.13907	29.55346	-107.53059	-165.77800	-29.25691	510.23233	188.50580	-27.83991	519.48749	29.43801	1213.27271	-62.37347	-42.83443	593.67426	-237.87115	115.86614	594.72662	-231.79408	-71.66708	496.35248	701.46399	83.93871	487.57886	705.19482	
2654	26.530	-164.30489	30.95195	-111.07417	217.84857	29.65825	-107.45901	-166.31779	-29.19744	510.11746	188.61214	-27.93228	517.65979	29.48093	1213.52087	-61.39148	-42.78922	594.77191	-237.54871	115.56825	595.42944	-231.34879	-72.35828	496.39661	701.65717	83.44443	487.04614	705.45911	
2655	26.540	-163.94138	30.03664	-110.44043	217.46951	30.00717	-107.46931	-166.45886	-29.29416	509.97083	188.82259	-30.23851	518.52216	29.71608	1214.37891	-60.38255	-42.66180	595.58044	-237.22629	116.08598	596.39069	-230.52058	-72.95528	496.78479	701.90558	82.31947	487.68103	705.96735	
2656	26.550	-164.12894	31.34665	-109.88322	217.57712	31.57109	-107.36514	-166.91829	-28.22701	509.85126	188.99878	-29.50760	518.84955	30.16261	1215.62500	-59.24417	-42.36824	596.17560	-236.66586	115.99059	596.84485	-229.63495	-74.28473	497.42807	702.31030	81.47729	488.87384	706.58099	
2657	26.560	-163.99886	30.70283	-110.03005	216.22751	34.27740	-105.79843	-166.06609	-26.21980	510.71860	188.34106	-31.35314	520.45416	30.62907	1216.59924	-58.57126	-42.04248	597.34955	-236.04314	116.37755	598.14191	-229.27641	-74.93727	497.54388	702.70026	80.67184	488.85757	707.00873	
2658	26.570	-164.09775	30.33079	-109.86468	213.03719	38.83581	-103.28217	-164.04060	-22.23876	512.61188	188.84137	-31.37606	518.92987	31.02126	1217.38391	-58.12596	-41.50402	598.11139	-235.34866	115.93455	599.31958	-228.72009	-75.47012	496.91718	702.86963	80.05421	488.32288	707.32111	
2659	26.580	-164.25706	30.68698	-110.01955	209.31601	46.91123	-102.18610	-161.87701	-14.39403	512.96185	188.41737	-32.02824	519.85352	30.98019	1217.89026	-57.36733	-41.68555	599.64233	-235.38812	116.51398	600.43988	-228.07361	-76.34144	496.27313	702.77405	79.29489	487.78836	707.57806	
2660	26.590	-164.60603	30.67150	-110.16789	206.84818	57.39760	-101.25893	-160.92680	-4.44662	511.84299	188.14368	-32.15283	519.28754	30.17265	1218.25439	-55.86693	-41.66560	600.05420	-235.04424	116.38121	600.77789	-227.69093	-76.77602	495.79388	703.18201	78.55980	487.21869	708.08643	
2661	26.600	-164.80975	30.47211	-109.83195	206.29988	69.05715	-102.04819	-162.01758	7.08298	510.77005	187.86700	-32.42652	519.83643	29.49847	1218.52673	-53.98356	-41.93072	600.69702	-234.67375	116.32169	601.21362	-227.00136	-77.07912	495.01917	703.49603	78.39133	486.44489	708.45386	
2662	26.610	-165.16008	30.50844	-109.65234	208.91170	81.87673	-102.15914	-164.94348	19.75156	508.92081	187.88324	-33.11884	519.57147	29.13066	1218.67090	-52.02761	-42.44598	600.94885	-234.18237	116.12759	601.66992	-226.81638	-77.50297	493.89294	704.03754	77.70261	485.41830	708.71741	
2663	26.620	-165.44983	30.48582	-109.51070	210.61967	94.41423	-102.98952	-169.40009	31.90297	507.92862	187.76404	-33.66923	519.57404	28.67499	1218.57861	-50.37950	-42.75684	601.10938	-233.58330	115.44611	601.83636	-226.38895	-77.61684	492.50656	704.23804	77.33746	483.86575	708.96826	
2664	26.630	-165.72165	30.41066	-109.40215	212.44328	107.09964	-102.81625	-172.41193	43.66474	507.61044	187.74681	-34.13942	519.84607	28.54319	1218.45703	-48.69749	-43.40239	601.35150	-232.94083	114.72894	601.98767	-225.53909	-77.56283	491.03491	704.58527	77.18539	482.75867	709.27686	
2665	26.640	-165.93677	30.44475	-109.27875	213.86003	118.87633	-102.15344	-175.12711	55.37164	507.20746	187.47531	-34.67895	519.97217	28.66766	1218.28882	-47.06319	-43.76802	601.53345	-232.18958	114.64091	602.16083	-224.94753	-77.88347	489.81775	705.26971	76.91592	481.40427	709.82617	
2666	26.650	-166.18871	30.51733	-109.07088	213.49062	130.02249	-101.58199	-176.20229	65.26232	507.61176	187.55417	-35.13439	519.93591	28.49333	1218.17590	-45.62716	-44.35009	601.76123	-231.43730	113.77204	602.22913	-224.32719	-78.21992	488.82043	705.79816	76.69987	480.22849	710.64655	
